<svg xmlns="http://www.w3.org/2000/svg" viewBox="0 0 24 24"><path fill="none" d="M0 0h24v24H0V0z"/><path fill="#333" d="M12.06 9.06l4-4-4-4-1.41 1.41 1.59 1.59h-.18c-2.3 0-4.6.88-6.35 2.64-3.52 3.51-3.52 9.21 0 12.72 1.5 1.5 3.4 2.36 5.36 2.58v-2.02c-1.44-.21-2.84-.86-3.95-1.97-2.73-2.73-2.73-7.17 0-9.9 1.37-1.37 3.16-2.05 4.95-2.05h.17l-1.59 1.59 1.41 1.41zm8.94 3c-.19-1.74-.88-3.32-1.91-4.61l-1.43 1.43c.69.92 1.15 2 1.32 3.18H21zm-7.94 7.92V22c1.74-.19 3.32-.88 4.61-1.91l-1.43-1.43c-.91.68-2 1.15-3.18 1.32zm4.6-2.74l1.43 1.43c1.04-1.29 1.72-2.88 1.91-4.61h-2.02c-.17 1.18-.64 2.27-1.32 3.18z"/></svg>